<svg version="1.1" id="Layer_1" xmlns="http://www.w3.org/2000/svg" xmlns:xlink="http://www.w3.org/1999/xlink" x="0px" y="0px"
	 width="100%" viewBox="0 0 1024 1024" enable-background="new 0 0 1024 1024" xml:space="preserve">
<path fill="#000000" opacity="1.000000" stroke="none" 
	d="
M355.408386,733.465332 
	C357.662476,728.971069 359.798767,724.828796 361.758392,720.604614 
	C362.682556,718.612427 363.453064,716.314331 360.942688,714.854797 
	C358.358704,713.352539 357.003357,715.321472 355.695129,717.129150 
	C351.302704,723.198792 346.817261,729.203430 342.537567,735.351318 
	C339.918427,739.113831 337.383057,739.357056 334.040192,736.217346 
	C331.891907,734.199524 329.290527,732.664062 327.008270,730.997253 
	C327.316650,728.222229 329.489746,727.598633 331.004150,726.469177 
	C334.388367,723.945190 337.354279,721.070923 339.421448,717.365234 
	C340.049835,716.238770 340.930328,715.015869 339.785889,713.699463 
	C338.535400,712.261108 337.095154,712.769897 335.692627,713.431580 
	C332.793976,714.799133 330.282379,716.773010 328.033020,718.979431 
	C323.193970,723.726074 317.345428,726.810242 311.476227,730.015686 
	C307.257202,732.319885 304.125427,732.100525 301.258392,728.223999 
	C300.286926,726.910400 298.655396,726.117188 298.061676,724.028076 
	C303.092499,718.783203 308.272278,713.427612 313.391388,708.014709 
	C314.668152,706.664673 316.862152,705.619446 315.349152,703.053711 
	C313.899780,700.595703 311.779541,701.063416 309.626678,701.551636 
	C308.818878,701.734802 308.051605,702.099609 307.242706,702.274231 
	C305.393951,702.673401 303.998749,702.136597 303.193817,700.285950 
	C302.207916,698.019226 303.818298,697.375854 305.345764,696.596680 
	C314.396881,691.979248 323.440430,687.347046 332.484985,682.716736 
	C342.567627,677.554932 352.651917,672.396301 362.722595,667.211243 
	C363.399994,666.862488 364.403198,666.798340 364.484009,665.622253 
	C362.595856,664.593933 360.966614,665.813904 359.362579,666.378479 
	C339.895569,673.230164 320.463684,680.181824 300.987305,687.006531 
	C299.119781,687.660950 296.769531,689.563477 295.081177,687.149536 
	C293.283844,684.579834 292.003662,681.509766 292.079742,678.316040 
	C292.125641,676.390747 294.407349,676.207031 295.904968,675.634033 
	C303.367035,672.778870 310.873047,670.036987 318.307892,667.113586 
	C320.036133,666.434082 322.701935,665.956665 322.141388,663.308350 
	C321.537872,660.456970 318.888672,660.907959 316.767731,661.127747 
	C311.981110,661.623718 307.276031,662.726379 302.383881,662.349548 
	C293.934326,661.698669 292.754852,660.546204 292.402832,651.125793 
	C299.263794,649.675049 307.189911,652.425293 313.765015,647.277283 
	C311.416107,644.019592 308.246765,643.908875 305.443298,643.426575 
	C296.548523,641.896362 288.074615,638.920837 279.484222,636.323853 
	C277.297119,635.662720 276.393585,634.529236 277.125244,632.296021 
	C277.280762,631.821350 277.447632,631.350220 277.594910,630.873047 
	C280.362946,621.903809 280.364929,621.895630 289.145599,624.543335 
	C294.821381,626.254822 300.488770,627.994141 306.262634,629.752258 
	C306.627777,627.502991 305.455383,626.220215 304.351440,625.083191 
	C301.507233,622.153748 303.220276,619.496582 304.792023,616.963867 
	C306.465759,614.266846 308.658722,616.110535 310.551971,616.766052 
	C318.944702,619.671997 327.002228,623.170349 333.339203,629.741760 
	C334.875824,631.335205 337.115082,632.807800 339.014099,630.864807 
	C340.907227,628.927795 339.242096,626.736877 337.821686,625.127686 
	C335.068451,622.008423 332.198059,618.980957 329.218719,616.077026 
	C327.236145,614.144653 327.018799,612.171753 329.109375,610.569275 
	C331.423798,608.795227 332.459747,603.596008 336.837402,606.524597 
	C346.687500,613.114258 355.808411,620.666504 363.511810,629.708374 
	C368.111023,635.106689 374.309357,637.230347 379.233612,634.273071 
	C383.259430,631.855408 383.640808,629.641724 380.036926,626.549622 
	C371.424133,619.159912 361.764526,613.190857 352.467346,606.733337 
	C347.058807,602.976746 346.761627,601.369324 350.425293,596.312561 
	C352.165741,593.910278 353.985291,593.301819 356.810120,594.656067 
	C362.127838,597.205383 366.616638,600.927795 371.399139,604.247192 
	C373.033142,605.381287 374.509552,607.367920 377.410645,606.230347 
	C375.193665,601.824158 370.688995,600.110840 367.795898,596.874939 
	C371.995178,591.079651 372.569916,590.926941 378.664764,594.030212 
	C380.891632,595.164001 383.141632,596.265503 385.293060,597.531311 
	C388.806458,599.598328 392.042023,600.411926 394.844055,596.394104 
	C395.684509,595.188965 397.015778,595.012512 398.445312,595.487671 
	C399.388916,595.801270 400.385803,595.958130 401.362549,596.167847 
	C412.764862,598.616455 414.680573,597.122192 414.691772,585.780884 
	C414.703461,573.962097 414.717377,562.143311 414.728210,550.324524 
	C414.731964,546.210022 414.950348,542.349365 419.888245,540.718933 
	C421.471771,540.196045 423.421967,538.675110 421.663666,536.505615 
	C420.117859,534.598328 418.280975,535.460876 416.940735,536.934875 
	C414.109070,540.049133 411.757477,543.483704 411.337036,547.841370 
	C410.602234,555.456848 409.869751,563.096863 410.625092,570.735229 
	C410.985687,574.381653 409.668243,575.570496 406.216949,575.377258 
	C403.227020,575.209900 400.217102,575.435120 397.220337,575.344788 
	C393.990753,575.247253 391.157990,575.406494 390.977722,579.734558 
	C390.914551,581.251526 389.621674,581.963867 388.113983,581.934143 
	C386.452759,581.901428 385.184387,581.216370 384.889099,579.436401 
	C384.726624,578.456970 384.603607,577.431030 384.711456,576.453491 
	C385.213257,571.905945 383.299805,570.637390 378.866577,571.253418 
	C375.948395,571.658875 372.224121,572.680664 370.940186,568.276611 
	C364.915710,571.606140 361.498138,571.375793 359.509552,567.703308 
	C357.093201,563.240845 358.905914,559.934448 366.125854,555.650452 
	C365.660309,552.832947 361.783447,553.965088 361.077148,551.062805 
	C362.623413,548.093262 365.628906,547.266541 368.738098,546.634216 
	C371.325653,546.108032 374.218750,545.272705 373.329193,542.054932 
	C372.552917,539.246765 371.185059,535.996948 367.090485,536.265625 
	C366.924225,536.276611 366.752106,536.321777 366.592529,536.294189 
	C363.837585,535.818726 359.615051,538.031738 358.672119,534.326782 
	C357.573944,530.011841 362.562134,530.970032 364.858063,529.735413 
	C366.972443,528.598389 367.425934,527.199951 366.715698,525.286560 
	C365.682129,522.502075 365.944580,518.619812 361.555389,518.351929 
	C359.232941,518.210144 356.916321,518.317749 354.675934,517.395752 
	C352.952057,516.686279 352.558075,515.446838 352.680847,513.818481 
	C352.815552,512.032104 354.102234,511.748230 355.514008,511.714966 
	C358.767639,511.638275 362.112427,511.904816 361.635773,506.893707 
	C361.037933,500.608948 360.190735,499.320129 354.423218,499.345551 
	C349.914551,499.365387 349.202972,496.855408 349.192688,493.394897 
	C350.411285,492.263519 351.810150,492.646851 353.089905,492.693604 
	C356.381714,492.813812 359.218994,492.351776 359.558777,488.269196 
	C359.872131,484.503998 359.461334,481.204590 354.660431,480.599823 
	C352.651489,480.346710 350.593628,479.718323 350.050385,477.390198 
	C349.567596,475.321259 349.399597,473.245483 352.656311,473.440460 
	C354.872192,473.573120 357.964539,476.424286 359.077972,472.724365 
	C360.130157,469.227997 361.024384,465.028259 357.868256,461.887939 
	C354.392517,458.429565 356.338898,456.444580 359.407166,454.575989 
	C361.418060,453.351288 363.613129,453.040558 365.393463,454.755829 
	C367.187683,456.484406 367.847473,458.672119 366.443604,461.104218 
	C365.783081,462.248505 364.998413,463.425934 364.751251,464.682983 
	C364.174042,467.618958 363.266235,471.142883 364.945190,473.441101 
	C367.170929,476.487701 370.354523,472.154022 373.646545,473.328094 
	C375.229340,477.626343 372.657318,479.545410 368.885895,480.328033 
	C365.189972,481.095001 363.885651,483.091156 364.376312,486.696167 
	C364.794586,489.769104 366.418427,490.967407 369.482269,490.795593 
	C371.451935,490.685150 373.280151,489.365936 375.578217,490.228760 
	C376.974335,493.722351 375.542358,495.568481 372.059082,496.775391 
	C366.251312,498.787720 364.889221,502.468231 367.510559,507.896210 
	C368.291748,509.513824 369.443024,509.556396 370.807190,509.033630 
	C372.667633,508.320648 374.514984,507.563141 376.323425,506.728271 
	C377.818054,506.038208 379.190765,505.646088 380.165924,507.433807 
	C380.945679,508.863312 381.155823,510.358276 379.808014,511.538574 
	C378.820312,512.403564 377.685883,513.151550 376.512604,513.745789 
	C369.155609,517.471924 369.090942,517.637207 372.999207,525.573181 
	C382.452087,522.692932 382.573456,522.224121 382.710907,512.968506 
	C382.852264,503.447113 385.077087,494.222443 388.123383,485.240112 
	C389.685059,480.635437 391.161530,476.082764 391.042145,471.152283 
	C391.022461,470.339355 390.979492,469.064423 391.436890,468.773956 
	C396.099670,465.812836 393.449280,462.273254 392.425507,458.801636 
	C389.183472,447.808075 390.720123,437.057007 394.304871,426.467377 
	C397.647095,416.594299 402.521332,407.555298 409.263397,399.546295 
	C414.862549,392.894989 419.842407,385.825958 423.372162,377.819092 
	C423.753876,376.953217 423.917847,375.821503 425.573456,375.630310 
	C427.141418,378.333740 427.472778,381.148926 426.609650,384.366089 
	C424.857697,390.896454 421.677979,396.727295 418.175476,402.398071 
	C414.042572,409.089630 411.031982,416.295013 407.831207,423.442902 
	C404.830658,430.143707 404.319519,436.367065 408.875519,442.075897 
	C410.647217,434.395599 411.441925,426.078766 416.831757,417.520355 
	C422.220428,439.335236 433.351166,456.561768 444.436890,473.812500 
	C445.165619,473.465454 445.894379,473.118378 446.623138,472.771332 
	C440.501740,460.274475 433.230652,448.238098 430.451508,434.244019 
	C444.609680,450.566010 455.401886,469.565948 470.448120,486.130615 
	C472.874329,481.301941 470.065552,478.984985 468.419128,476.650391 
	C462.179565,467.802582 455.756012,459.091400 449.924347,449.954010 
	C440.391571,435.017395 433.132812,419.215668 432.174744,401.259399 
	C431.536926,389.304840 433.924561,377.842072 439.759857,367.435394 
	C442.232086,366.737396 443.602325,369.893585 446.059387,367.974823 
	C445.277527,365.730499 445.887573,364.045135 448.540710,362.511200 
	C454.217773,359.228943 455.628967,352.274811 460.129974,347.847626 
	C461.806030,346.199066 458.554626,344.145050 460.434784,342.021973 
	C467.609894,345.577820 471.752197,351.944702 475.476959,358.594421 
	C483.855011,373.551453 491.351624,389.020752 501.267242,403.078796 
	C504.079437,407.065826 507.208588,410.829254 510.934631,415.656952 
	C511.829773,410.912140 509.716583,408.627686 508.254028,406.285706 
	C499.612671,392.448273 490.048370,379.190277 482.723907,364.530853 
	C476.751038,352.576477 471.237274,340.618073 470.306213,326.924164 
	C468.931030,306.697418 481.341644,287.841064 500.512573,282.088562 
	C502.313171,281.548309 504.226624,280.344757 507.100586,282.477844 
	C494.757843,291.108521 486.067871,302.252411 481.433929,316.450836 
	C482.382324,316.772980 482.881622,317.029358 482.941681,316.950623 
	C486.727936,311.986786 493.597351,310.116760 496.067139,303.752411 
	C496.532654,302.552734 498.250519,300.950592 499.289734,301.021057 
	C503.103912,301.279694 504.042725,297.265564 507.102997,296.266113 
	C508.554504,295.792023 510.353302,294.169952 511.878143,292.920258 
	C514.659973,290.640411 516.443420,293.423706 517.953186,295.553772 
	C522.694336,294.457306 524.508057,289.199280 530.655762,287.887665 
	C527.892029,305.061249 529.941895,321.228699 536.004333,336.893311 
	C541.893494,352.110382 549.093079,366.519806 559.582275,379.094421 
	C561.070007,375.604553 558.822510,373.524109 557.518555,371.181976 
	C547.292114,352.813934 537.764160,334.159210 533.241394,313.397675 
	C529.307739,295.340576 537.062256,274.567139 551.385681,264.806061 
	C552.470398,264.066864 553.692993,262.580383 554.873108,263.219208 
	C560.697937,266.372253 561.723633,261.528900 563.703552,258.193604 
	C568.629700,259.284119 573.477600,256.566376 575.432190,251.486191 
	C579.047974,252.152023 581.659363,250.130829 584.157776,247.886169 
	C586.496948,245.784561 588.801208,243.644043 591.259216,241.393967 
	C592.337524,242.136169 593.364563,242.678802 594.189331,243.440460 
	C597.096436,246.125244 599.508118,245.393112 600.683899,242.004288 
	C601.708008,239.052490 603.750977,237.787018 606.325989,236.899918 
	C630.112000,228.705490 648.210266,214.050461 658.986511,190.918121 
	C660.258789,188.186996 661.308411,184.134918 665.055237,184.465424 
	C668.291870,184.750946 669.000610,188.645157 670.217896,191.290237 
	C674.607971,200.829559 678.461670,210.582474 680.664551,220.892395 
	C683.532532,234.314819 688.355713,247.050507 694.094910,259.460266 
	C700.245850,272.760437 699.287170,286.559082 697.199524,300.461975 
	C696.937927,302.204529 695.701843,302.845123 694.186523,303.382904 
	C691.852417,304.211273 689.386353,303.927124 685.606567,304.236450 
	C690.085205,306.015442 693.434143,303.461273 696.536621,305.173706 
	C696.532410,307.016571 694.246399,306.154327 693.796204,307.487305 
	C694.342529,308.498840 696.143921,307.799896 696.422241,309.567230 
	C694.242249,311.438507 691.152344,310.448975 688.031738,311.738037 
	C690.976807,312.976898 693.678162,310.807495 696.212830,312.623871 
	C693.832397,315.801941 690.162720,314.397430 686.826477,315.532593 
	C689.549744,316.237579 692.368103,314.912842 694.549316,317.219788 
	C692.140503,319.517792 689.226257,318.820404 685.071533,319.315216 
	C688.731750,319.772003 690.938782,320.047424 692.805420,320.280365 
	C694.312988,321.824646 691.312256,322.522766 692.764160,324.025208 
	C694.689636,326.017761 693.069641,327.161072 691.254333,327.362549 
	C686.946594,327.840637 688.507080,329.766083 690.242737,331.984558 
	C672.497314,342.963013 651.869202,343.646301 632.482849,348.867798 
	C636.594543,352.083862 641.105164,350.884094 645.196716,350.339172 
	C657.044434,348.761322 668.842468,346.755859 680.501465,344.043274 
	C681.947266,343.706879 683.425537,343.326965 685.204529,344.389069 
	C682.706604,348.818634 677.220520,347.617981 673.724609,350.592773 
	C680.125366,351.042999 685.817505,349.268799 691.463074,347.509430 
	C696.745544,345.863251 697.918579,346.028748 697.883606,351.476440 
	C697.855713,355.833466 698.435730,360.155975 698.209229,364.509094 
	C697.932922,369.818176 695.855652,373.380951 690.117798,374.005493 
	C688.477295,374.184021 686.873047,374.695923 685.260315,375.430267 
	C688.809082,375.205170 692.351685,374.041534 695.895203,375.027008 
	C695.512451,382.592957 689.230713,381.648590 683.850830,382.953949 
	C687.634644,384.551331 691.103149,382.036377 694.320312,384.372223 
	C689.374695,386.731262 683.937744,385.664459 679.226929,387.945190 
	C683.566284,387.945190 687.905579,387.945190 692.335083,387.945190 
	C691.700073,390.848175 689.244568,389.442047 688.127258,390.625977 
	C688.070862,391.815552 690.238708,391.328522 689.761719,392.708588 
	C689.330017,393.957428 688.260437,394.258728 686.984436,394.381927 
	C683.757263,394.693512 680.545715,395.168274 677.337708,395.962677 
	C680.048218,396.556000 682.893188,395.721741 685.691223,397.209747 
	C684.479065,399.685944 682.072876,398.911560 679.805969,399.422852 
	C682.905396,400.836029 683.151245,402.475220 680.350281,404.060730 
	C676.302979,406.351715 672.208374,408.567749 667.556335,409.688019 
	C671.789795,411.237152 675.745667,410.182800 684.387512,405.634216 
	C689.679626,402.848724 693.909790,398.132263 699.941284,396.194061 
	C701.175598,399.748566 699.493713,401.896362 698.195129,403.840149 
	C686.938843,420.688629 672.088623,433.030701 652.582581,439.229858 
	C646.738342,441.087158 646.661072,440.844025 644.544006,443.604950 
	C649.108398,444.509430 653.130615,442.977844 657.172058,441.879608 
	C674.486084,437.174561 687.717529,425.981049 700.687012,414.384796 
	C703.018494,412.300201 705.252197,410.048645 709.417297,409.434906 
	C708.121948,415.659882 705.762085,420.761536 702.151672,425.296326 
	C692.066956,437.962860 678.738892,445.832855 663.696350,451.137756 
	C658.835938,452.851868 653.976501,454.568970 649.118103,456.288849 
	C646.428345,457.241058 645.462524,459.154877 645.184204,461.992035 
	C644.666992,467.264740 644.706970,472.641357 643.100098,477.761322 
	C642.249512,480.471436 641.370117,483.292786 637.919983,483.740814 
	C638.823669,490.106537 637.085205,493.997772 621.326904,495.621277 
	C625.958923,496.143005 630.565002,495.684204 635.669617,494.853821 
	C635.052368,499.065430 632.273438,501.859619 630.192993,504.164001 
	C622.840027,512.308289 622.542969,512.040100 611.049072,512.392578 
	C615.859558,513.777039 620.435730,512.694031 626.225647,513.658020 
	C621.414673,517.508606 616.584167,516.181946 612.465332,517.204468 
	C625.850830,519.314880 635.784241,513.668945 640.094543,500.836426 
	C643.533630,490.597382 646.486328,480.178986 646.885742,469.251221 
	C646.891785,469.084717 646.899414,468.917877 646.916016,468.752197 
	C647.303589,464.876740 647.542236,460.070038 652.495361,460.169586 
	C656.835144,460.256805 656.612915,465.089386 657.308594,468.388947 
	C664.187805,501.015594 641.766357,529.512512 619.377136,541.827087 
	C617.491699,542.864075 615.457336,544.104492 613.409058,544.279907 
	C607.881775,544.753296 606.939636,547.779419 607.214844,552.660583 
	C607.617554,559.803772 607.104675,566.995728 607.420532,574.147583 
	C607.638489,579.082336 606.237427,581.535889 600.927002,580.439880 
	C600.169800,580.283630 599.330750,580.524414 597.655823,580.643616 
	C600.828247,582.562012 603.970520,581.048889 606.553711,582.927673 
	C604.959595,586.325378 601.426453,584.817139 598.970520,586.366516 
	C601.033813,587.192017 604.214111,585.087585 604.963013,588.660645 
	C603.724487,591.118286 601.024536,589.969727 599.087585,591.188049 
	C600.026367,592.425964 602.270874,590.915100 602.968994,592.960815 
	C602.160767,594.851196 600.037903,593.865295 598.439087,594.805054 
	C601.403503,598.114014 598.926697,598.958435 596.245850,599.087646 
	C591.620056,599.310669 586.975708,599.149475 582.335876,599.321899 
	C587.049194,600.054626 591.973572,599.156738 597.867004,601.815613 
	C592.089355,604.194153 587.170288,602.814636 581.306946,603.481262 
	C585.729309,604.075256 588.999329,604.514465 593.327271,605.095764 
	C588.815857,607.605225 586.085388,609.643066 580.920105,608.029358 
	C574.778931,606.110779 567.811340,606.862976 561.187073,607.461426 
	C571.134705,607.900208 580.893982,609.181519 590.561584,611.754761 
	C594.263611,612.740173 598.490417,611.772156 602.477356,611.663696 
	C605.656616,611.577271 608.777527,611.814941 611.865662,612.691406 
	C619.435486,614.839844 622.186646,618.379517 622.315613,626.391296 
	C622.347839,628.390686 622.349915,630.390930 622.333618,632.390564 
	C622.318298,634.271545 622.806946,635.698975 625.050903,635.748901 
	C626.923950,635.790588 628.086609,635.179138 628.653870,633.137756 
	C631.955933,621.255127 627.430725,611.921448 615.491577,607.965393 
	C610.494507,606.309631 610.944519,602.735962 610.995056,599.330078 
	C611.056030,595.221191 614.851135,596.418884 617.146729,596.195129 
	C624.387451,595.489441 624.394043,595.633850 624.766968,588.065552 
	C624.881470,585.742676 624.628357,582.860291 626.760254,581.679565 
	C629.123169,580.371033 631.599976,582.068726 633.603638,583.554443 
	C636.005920,585.335815 638.544800,587.098938 640.443542,589.358337 
	C644.205872,593.835266 647.859436,593.764099 652.468750,590.604187 
	C656.711914,587.695374 661.454956,585.525635 665.892029,582.886292 
	C668.606689,581.271484 670.638611,581.521240 672.899597,583.892273 
	C675.520630,586.640930 678.608643,588.944214 682.158447,592.015747 
	C676.344299,596.179138 671.813477,599.473206 667.229675,602.691833 
	C662.594727,605.946411 657.853882,609.052551 653.271057,612.377563 
	C651.610168,613.582581 648.315674,614.293274 650.405273,617.531250 
	C652.427185,620.664185 654.805908,619.425415 657.239563,617.829163 
	C667.547729,611.067566 677.937805,604.430420 688.221008,597.631409 
	C693.605957,594.071045 693.541016,593.957397 697.423523,599.399170 
	C698.169617,600.444885 699.427856,601.216064 699.347168,602.996155 
	C693.690674,608.034302 684.488464,608.521240 680.078430,616.923096 
	C688.508057,618.866333 694.371155,612.378113 701.801392,612.438232 
	C702.240234,613.367554 702.717651,614.405029 703.217163,615.431702 
	C705.274963,619.661255 703.486511,621.303711 699.263367,621.992188 
	C687.598999,623.893555 676.104492,626.571777 664.879883,630.325378 
	C664.250671,630.535828 663.579956,630.654053 662.988525,630.939453 
	C661.397339,631.707214 659.089050,632.172180 659.852478,634.630798 
	C660.551086,636.880432 662.466553,636.655823 664.430725,636.140686 
	C674.718933,633.442383 685.027710,630.822388 695.332153,628.186035 
	C696.781189,627.815308 698.272339,627.590332 699.697021,627.147034 
	C702.218994,626.362183 703.821106,627.000244 704.668762,629.660278 
	C705.831665,633.309387 707.878784,637.172852 707.013672,640.742737 
	C705.730591,646.037292 700.514893,642.750854 697.175110,643.581909 
	C692.383667,644.774231 687.286072,644.722900 682.324524,645.252075 
	C680.681091,645.427368 678.636536,645.507507 678.708313,647.776733 
	C678.769775,649.719421 680.559448,650.254822 682.215759,650.775818 
	C686.461182,652.111145 690.816589,651.474182 695.125854,651.637451 
	C696.789856,651.700439 698.458984,651.617065 700.124939,651.647461 
	C710.388123,651.834961 710.231079,649.707947 710.278503,661.983948 
	C710.286682,664.101929 710.802063,666.314453 709.572327,668.468445 
	C705.440186,668.665405 701.456665,666.701782 697.278442,667.352905 
	C694.676697,667.758423 691.426270,667.787537 690.891785,670.990173 
	C690.404602,673.909546 693.175720,675.225952 695.461670,676.229431 
	C699.267822,677.900330 703.154907,679.415649 707.376160,679.717651 
	C710.218872,679.921204 711.644226,680.949463 710.806030,684.208130 
	C709.944702,687.556335 709.586182,691.033813 708.893433,695.129883 
	C703.335022,693.674072 698.120789,692.336121 692.922974,690.937073 
	C689.543762,690.027588 686.176331,689.091675 682.629028,689.239807 
	C680.998596,689.307800 679.042603,688.969666 678.586365,691.200867 
	C678.174255,693.216614 679.646484,694.306519 681.220764,694.955505 
	C686.449585,697.111389 691.731201,699.138855 696.988098,701.226929 
	C698.380310,701.779907 699.758057,702.369690 701.139587,702.949341 
	C707.337219,705.549744 708.241699,709.978760 703.754272,715.179077 
	C702.056458,717.146667 700.109436,716.628967 698.286377,715.891785 
	C694.585999,714.395691 691.007263,712.601685 687.337891,711.024597 
	C685.817200,710.371033 684.225708,709.750793 682.606384,709.493530 
	C680.857117,709.215759 678.662476,708.718872 677.672363,710.767334 
	C676.639343,712.904663 678.504761,714.140686 679.923462,715.235840 
	C685.605347,719.622253 691.652588,723.476807 698.005798,726.794250 
	C701.181702,728.452576 701.932068,730.342651 700.233337,733.541748 
	C698.376648,737.038391 696.838684,740.704407 694.973450,744.700256 
	C684.641174,738.537659 676.108398,730.503052 665.600830,725.608154 
	C662.827026,729.163025 663.311707,731.802734 666.235840,734.235413 
	C671.998962,739.029968 677.653320,743.958496 683.499023,748.649231 
	C686.603638,751.140564 687.057190,753.452454 684.317566,756.503784 
	C682.242004,758.815552 680.481567,761.410156 678.360352,764.165222 
	C673.824219,759.781921 669.247742,756.273987 663.992310,753.738708 
	C661.084045,752.335632 658.479736,751.184814 656.905029,755.613831 
	C655.942078,758.322205 653.328796,757.948120 650.601379,757.876526 
	C650.651855,749.449463 653.356201,741.830444 654.162598,733.955017 
	C654.957764,726.188782 656.057617,718.446228 656.605042,710.663818 
	C657.634399,696.030823 647.482239,687.153625 638.823669,676.644409 
	C637.741272,681.580627 637.969055,685.942871 640.251831,689.291626 
	C649.364441,702.659851 647.314636,717.123962 645.212891,731.682434 
	C644.192688,738.748901 643.200806,745.819824 642.118835,752.876953 
	C640.434875,763.860596 634.794800,772.224304 625.687927,778.604492 
	C611.685303,788.414490 595.938049,792.956909 579.194885,793.121399 
	C538.386780,793.522522 497.565857,793.673218 456.763275,793.054749 
	C440.570221,792.809326 424.931885,788.360107 410.107117,781.402588 
	C397.310760,775.397034 389.669769,765.778137 387.836456,751.692932 
	C386.120605,738.510498 384.417450,725.326355 382.749207,712.137878 
	C382.032227,706.469666 383.431580,701.272766 386.273468,696.348938 
	C389.962982,689.956421 390.678101,682.929016 390.595764,675.681641 
	C376.510071,689.270447 371.226624,705.315308 374.811188,724.577087 
	C376.598022,734.178650 377.190308,744.016968 379.193756,753.623962 
	C379.352081,754.383301 379.083496,755.231628 378.967255,756.568298 
	C372.943573,756.177368 368.601807,752.481750 363.340057,750.706055 
	C369.012115,741.937622 369.262634,739.442749 365.040741,734.790405 
	C362.125793,738.404053 361.160522,743.308655 357.477570,746.269409 
	C351.148743,742.998901 350.799103,740.971924 355.408386,733.465332 
M544.499939,665.650940 
	C570.271912,665.650940 596.043884,665.650940 622.180237,665.650940 
	C621.877014,661.300171 620.050537,658.415710 617.941101,655.627441 
	C613.021484,649.124512 605.914917,648.436218 598.620300,648.424988 
	C571.120605,648.382629 543.620728,648.403992 516.120972,648.402710 
	C487.787872,648.401367 459.454559,648.454956 431.121765,648.365784 
	C423.441223,648.341553 417.035065,650.583984 412.706909,657.250732 
	C411.347961,659.343994 409.614685,661.760315 410.659576,664.164978 
	C411.806702,666.805054 414.821869,665.609741 417.000824,665.613037 
	C459.167114,665.676392 501.333496,665.655151 544.499939,665.650940 
M629.296570,745.441040 
	C627.912170,753.869568 623.788208,760.399048 615.913208,764.105408 
	C611.387390,766.235474 606.601868,767.695679 601.604736,768.317627 
	C589.693420,769.800293 577.726746,770.356934 565.734558,770.206604 
	C519.264221,769.624146 472.782013,771.233887 426.317627,769.460144 
	C425.427063,769.426086 424.268951,769.239563 423.804688,770.621399 
	C425.491150,773.143982 428.179474,773.946716 430.921295,774.671509 
	C441.999176,777.600037 453.391785,777.358826 464.663300,777.504395 
	C498.981384,777.947632 533.302185,777.596008 567.620117,776.968994 
	C584.903442,776.653198 602.320862,777.522034 617.837952,768.833679 
	C619.709961,769.621887 619.320740,772.042786 621.333923,771.970886 
	C634.781921,765.447998 637.078186,748.928711 630.677124,734.815735 
	C630.253723,738.010803 629.817810,741.300293 629.296570,745.441040 
M526.735962,469.332184 
	C529.442200,464.548401 532.119812,459.748138 534.862671,454.985474 
	C537.688232,450.079132 540.540527,445.187408 543.449280,440.330109 
	C546.272400,435.615814 549.143921,430.929535 552.064087,426.274780 
	C554.971680,421.640045 558.167053,417.229065 562.353943,413.598297 
	C547.139282,444.929565 526.815430,473.526550 514.973938,506.460114 
	C540.426758,455.826141 570.198303,407.628052 599.379150,358.567108 
	C596.750610,358.264679 596.202271,359.509064 595.636169,360.404358 
	C580.211975,384.799042 560.502686,406.074493 544.886230,430.340424 
	C522.174622,465.631256 502.296814,502.237762 490.474121,542.807800 
	C489.452576,546.313110 491.651489,550.356384 487.741943,553.354858 
	C489.886841,554.049072 491.323883,554.798035 492.152405,552.368713 
	C493.223358,549.228638 494.673645,546.204529 495.570557,543.020569 
	C502.793030,517.382141 514.069092,493.466248 526.735962,469.332184 
M543.675293,592.106628 
	C550.112915,592.605103 556.255615,591.653320 561.974854,588.482910 
	C564.104431,587.302307 566.378784,585.825867 565.797974,583.233398 
	C564.938904,579.399231 564.271423,575.388489 562.142029,571.966309 
	C559.656677,567.971985 555.754639,567.023010 551.690369,568.622864 
	C545.330017,571.126587 539.455505,574.603027 534.806824,579.786621 
	C530.632935,584.440674 532.245483,589.959351 538.303406,591.632568 
	C539.720154,592.023926 541.266052,591.947876 543.675293,592.106628 
M621.410828,464.255768 
	C611.181946,465.481689 600.907654,465.971985 590.618896,466.410492 
	C580.001526,466.862976 569.397339,467.670166 558.798157,468.465729 
	C556.561340,468.633606 553.449585,468.908386 553.779114,472.009644 
	C554.075134,474.795074 557.032288,473.661926 558.783936,473.608490 
	C576.709717,473.061523 594.624451,472.056549 612.367859,469.418976 
	C620.960571,468.141632 629.671753,466.650146 637.161804,461.279053 
	C632.201233,462.231659 627.240723,463.184235 621.410828,464.255768 
M577.784424,497.392059 
	C577.238831,498.228119 576.639465,499.034515 576.158325,499.906097 
	C574.977295,502.045563 574.256775,504.407715 575.882690,506.480164 
	C577.689270,508.782776 580.416626,508.296082 582.822815,507.635193 
	C584.209595,507.254333 585.646606,506.417419 586.646301,505.384430 
	C589.764709,502.162201 592.791016,498.835510 595.640137,495.374084 
	C597.143555,493.547577 597.749084,491.187592 597.523560,488.793304 
	C597.295837,486.376740 596.249634,484.280640 594.108154,482.975250 
	C591.691223,481.501801 590.011902,483.369415 588.297241,484.547241 
	C583.778809,487.651062 581.081299,492.300659 577.784424,497.392059 
M408.407104,616.044678 
	C410.963593,613.152771 415.085907,612.568176 417.956360,609.899719 
	C414.784729,608.065674 413.930908,607.958679 410.947266,608.900452 
	C401.860016,611.768738 397.169250,619.315796 397.240570,630.788635 
	C397.257202,633.462402 397.260590,635.820374 400.940094,635.921570 
	C404.717316,636.025452 404.737061,633.593689 404.734863,630.944763 
	C404.730682,625.936401 404.834015,620.941589 408.407104,616.044678 
M574.491272,784.240051 
	C567.524048,785.219727 559.883850,782.198792 553.642639,787.846802 
	C567.909790,790.979919 581.721252,788.475159 595.479675,784.887756 
	C588.848450,782.232422 582.121155,785.029785 574.491272,784.240051 
M615.876465,286.511505 
	C613.171387,280.989624 610.210205,275.575256 607.833740,269.915375 
	C605.490417,264.334381 603.739197,258.504791 601.728149,252.784256 
	C602.489929,269.817474 608.135498,284.762665 619.750122,297.123535 
	C620.417175,293.062958 617.565369,290.412445 615.876465,286.511505 
M610.074646,400.575012 
	C607.041992,400.575012 604.009338,400.575012 600.023987,400.575012 
	C604.827942,403.074310 609.655884,400.473236 614.259583,403.349091 
	C609.216797,405.065521 604.735657,403.190186 599.821106,404.193237 
	C602.755005,405.414856 605.686035,403.954681 607.671448,406.260529 
	C606.065552,407.952637 603.826416,406.472900 601.735596,408.893829 
	C609.698608,408.036194 616.767761,409.488220 623.770935,409.540344 
	C625.158875,404.128387 619.532593,406.166138 618.258057,403.618744 
	C621.129456,401.713104 624.268738,403.388947 627.043030,401.676331 
	C621.689392,401.356476 616.335693,401.036621 610.074646,400.575012 
M567.265930,552.136841 
	C553.288940,552.454224 539.312927,552.829041 525.334595,553.066040 
	C517.741882,553.194824 510.145264,553.089050 502.550415,553.089050 
	C502.555389,553.304199 502.560364,553.519409 502.565338,553.734558 
	C534.244690,553.734558 565.924072,553.734558 597.603455,553.734558 
	C587.804443,552.908508 577.955994,553.738953 567.265930,552.136841 
M419.022430,735.613037 
	C420.647430,735.463684 422.328339,735.524841 423.883362,735.111938 
	C425.842133,734.591858 427.627808,733.576172 427.601288,731.120728 
	C427.572693,728.470825 425.384247,728.091675 423.523163,727.591309 
	C421.219055,726.971802 418.953430,727.578918 416.741455,728.289368 
	C412.979492,729.497620 412.579041,730.945374 415.377136,733.697205 
	C416.168304,734.475281 417.291779,734.915466 419.022430,735.613037 
M602.075989,734.669617 
	C603.894653,733.806152 605.031555,732.480042 604.616150,730.363342 
	C604.241028,728.452271 602.679626,727.662842 600.993042,727.488708 
	C598.220886,727.202698 595.292236,726.748474 593.117676,729.207764 
	C592.137878,730.315796 592.068298,731.734131 592.934265,732.880310 
	C594.983826,735.593323 597.753540,736.130981 600.904724,735.112610 
	C601.061951,735.061829 601.216370,735.001953 602.075989,734.669617 
M518.645386,560.064148 
	C542.225342,560.064148 565.805359,560.064148 589.385315,560.064148 
	C563.354492,559.639893 537.320801,557.870667 511.294037,560.056274 
	C513.433105,560.056274 515.572144,560.056274 518.645386,560.064148 
M568.506287,727.673340 
	C565.352600,727.430237 561.486755,725.970337 560.461365,730.613647 
	C559.854980,733.359131 562.361023,734.507141 564.691956,735.172119 
	C567.505615,735.974731 570.108887,735.341187 571.639771,732.894287 
	C573.220581,730.367554 571.160706,729.055298 568.506287,727.673340 
M452.225311,727.513672 
	C449.921265,728.397644 448.415527,729.946167 449.736084,732.395935 
	C451.329926,735.352722 454.346863,735.193604 457.156342,734.778076 
	C459.440338,734.440247 461.361115,733.116760 461.356995,730.682007 
	C461.353271,728.484680 459.086456,728.051514 457.397491,727.629517 
	C455.998718,727.279968 454.468506,727.456543 452.225311,727.513672 
M508.155396,733.186157 
	C509.158478,734.369629 510.409576,735.233948 511.929504,735.466858 
	C514.339966,735.836182 516.088867,734.558594 517.484314,732.779175 
	C518.198669,731.868347 519.003540,730.723206 518.169922,729.597168 
	C516.031433,726.708984 512.861389,727.047791 509.939728,727.603699 
	C507.235931,728.118225 506.651672,730.118469 508.155396,733.186157 
M489.299194,731.319580 
	C488.161530,727.003845 484.662720,727.170532 481.431335,727.516357 
	C477.722900,727.913147 476.906494,730.472900 479.270813,733.416260 
	C481.886658,736.672729 485.199951,736.181030 489.299194,731.319580 
M638.424744,635.124878 
	C641.751343,638.042603 645.632935,636.758850 649.187866,636.121582 
	C651.021606,635.792908 651.082947,633.461304 649.874756,631.987305 
	C647.756470,629.403076 639.583191,631.147888 638.424744,635.124878 
M535.875732,733.968384 
	C536.971680,734.235596 538.061584,734.695740 539.164856,734.730774 
	C541.631836,734.809082 543.762146,734.033936 544.571106,731.410828 
	C545.017212,729.964417 544.341553,728.761841 543.011353,728.165100 
	C540.135864,726.875183 537.204712,726.743164 534.683228,728.874207 
	C532.702148,730.548340 534.190979,732.087708 535.875732,733.968384 
M422.575623,677.625671 
	C420.600861,675.879700 418.263580,676.155090 415.986450,676.602051 
	C414.631897,676.867920 413.633820,677.782532 413.421967,679.292908 
	C413.188110,680.959839 413.828186,682.261597 415.270813,683.029846 
	C417.130951,684.020386 419.165466,684.077087 420.966888,683.034912 
	C422.737946,682.010376 424.227173,680.599976 422.575623,677.625671 
M513.342285,700.053650 
	C514.628967,698.495728 514.737976,696.923401 512.785339,695.998901 
	C510.167145,694.759216 507.351196,694.558105 504.781494,696.136169 
	C503.173828,697.123535 503.503906,698.722168 504.419586,700.037903 
	C505.733673,701.926086 507.566986,703.000000 509.916962,702.273071 
	C510.977631,701.945007 511.893219,701.147888 513.342285,700.053650 
M462.338959,680.365906 
	C464.042603,684.671936 467.168335,684.440613 470.390533,682.560547 
	C472.136719,681.541748 473.727173,679.505676 471.388428,677.742798 
	C468.421753,675.506592 465.223358,675.478394 462.635986,678.705627 
	C462.444824,678.944031 462.434509,679.327454 462.338959,680.365906 
M444.871490,676.459656 
	C444.210175,676.426453 443.546356,676.339355 442.888000,676.370117 
	C440.847229,676.465210 438.696594,676.622437 438.364777,679.220215 
	C438.050323,681.682251 439.815338,682.850891 441.837921,683.368713 
	C444.573700,684.069153 446.844025,682.968811 448.114075,680.535889 
	C449.379303,678.112183 447.213440,677.449585 444.871490,676.459656 
M589.656128,682.358337 
	C591.061401,680.815979 592.414124,679.075745 590.232788,677.343018 
	C588.105652,675.653564 585.578003,676.031494 583.231934,677.105591 
	C581.703186,677.805542 580.976013,679.127258 581.575562,680.754822 
	C582.451050,683.131165 584.454346,683.760010 586.764526,683.525635 
	C587.550720,683.445984 588.302551,683.027283 589.656128,682.358337 
M557.374268,681.394287 
	C557.951965,682.462280 558.794006,683.292175 559.992493,683.485168 
	C562.778625,683.933716 565.566101,683.727539 566.455811,680.529724 
	C567.248169,677.681519 564.944824,676.642578 562.708008,676.506287 
	C559.836060,676.331238 556.268860,675.818542 557.374268,681.394287 
M562.244446,699.857361 
	C563.108032,697.009216 561.366455,695.849915 559.071655,695.418335 
	C556.802551,694.991577 554.410156,694.821838 552.927673,697.269348 
	C552.105103,698.627441 552.489563,699.892151 553.592102,700.796814 
	C555.620361,702.460938 557.872925,703.279968 560.367432,701.702332 
	C560.913513,701.356812 561.373901,700.875732 562.244446,699.857361 
M612.984680,683.481445 
	C614.876953,682.746155 616.791870,682.000122 616.563416,679.428406 
	C616.400757,677.597046 614.914246,676.998108 613.481140,676.646729 
	C610.600891,675.940491 607.586182,676.657288 607.007507,679.574951 
	C606.289307,683.195740 609.478699,683.540588 612.984680,683.481445 
M381.006989,539.018555 
	C386.178131,536.256409 386.411011,535.224365 382.869598,529.777100 
	C380.505127,530.549866 377.236877,530.668213 376.696533,533.587891 
	C376.292358,535.771667 377.265076,538.531250 381.006989,539.018555 
M533.379761,680.346558 
	C534.235168,683.823914 536.871948,683.985901 539.614624,683.451782 
	C541.331604,683.117371 542.481995,681.837585 542.573364,679.946350 
	C542.673828,677.865295 541.233337,676.966980 539.540161,676.630310 
	C536.815063,676.088318 534.136108,675.978394 533.379761,680.346558 
M517.577637,676.841980 
	C515.799133,676.218140 514.029053,676.151855 512.357422,677.119629 
	C509.700439,678.657959 509.485809,680.704224 511.735291,682.634277 
	C513.702515,684.322205 516.083313,684.080627 518.086487,682.575134 
	C520.227112,680.966248 520.233704,679.053894 517.577637,676.841980 
M532.339355,702.156616 
	C534.865417,703.117798 536.945862,702.465698 538.342651,700.203857 
	C539.076599,699.015442 539.090454,697.483643 537.946716,696.537292 
	C535.649963,694.636902 532.790405,694.457397 530.593628,696.188110 
	C527.983826,698.244263 529.689026,700.235901 532.339355,702.156616 
M492.271851,683.599243 
	C494.617432,683.169495 496.356293,681.992554 496.444427,679.445862 
	C496.497864,677.902222 495.115631,677.184509 493.840820,676.776611 
	C491.032928,675.877930 488.029907,676.157288 487.109131,679.126160 
	C486.127777,682.290283 488.914307,683.223328 492.271851,683.599243 
M458.967224,695.343018 
	C455.045715,697.295044 454.624359,699.462769 457.768372,701.567932 
	C459.789551,702.921204 461.811218,702.838440 463.765839,701.437195 
	C464.881989,700.637024 465.928101,699.580383 465.442291,698.138428 
	C464.519989,695.400879 462.056061,695.386658 458.967224,695.343018 
M482.899872,695.263306 
	C480.104340,695.981079 479.537811,697.912903 480.657013,700.205444 
	C481.618225,702.174377 483.587860,702.933167 485.720032,702.358826 
	C487.682983,701.830139 489.819366,700.825867 489.507263,698.429199 
	C489.075409,695.112732 486.142975,695.350830 482.899872,695.263306 
M430.708801,553.339539 
	C428.569458,553.339539 426.430145,553.339539 424.290802,553.339539 
	C424.291748,553.440552 424.292694,553.541565 424.293640,553.642578 
	C441.673492,553.642578 459.053314,553.642578 476.433167,553.642578 
	C476.433014,553.535400 476.432861,553.428284 476.432739,553.321106 
	C461.504883,553.321106 446.577057,553.321106 430.708801,553.339539 
M608.934143,393.339172 
	C605.623291,392.376770 605.219849,396.321686 602.829956,397.748291 
	C610.290833,397.748291 617.751709,397.748291 625.212585,397.748291 
	C622.802124,397.245544 620.361023,397.244110 617.919922,397.245880 
	C614.564087,397.248322 611.228088,397.208984 608.934143,393.339172 
M669.313232,266.588165 
	C673.634583,265.397369 676.996582,262.804474 680.909607,258.811218 
	C674.683350,261.527222 669.615662,263.737823 663.979919,266.196228 
	C666.267578,268.026489 667.435303,267.049377 669.313232,266.588165 
M383.225464,559.613708 
	C383.209106,561.970520 384.426910,562.984497 386.685486,562.554626 
	C389.322784,562.052673 388.577789,559.859741 388.650665,558.158020 
	C388.710571,556.758972 388.437653,555.451782 386.631927,555.344910 
	C384.121948,555.196350 382.908966,556.329834 383.225464,559.613708 
M393.508118,559.097717 
	C395.986633,561.822205 398.606628,560.694885 402.767853,559.260620 
	C398.546539,558.746521 398.590149,555.860474 397.346588,554.252563 
	C394.220062,554.225159 393.172791,555.733459 393.508118,559.097717 
M557.707947,482.627808 
	C559.048706,482.352509 560.712036,482.801758 561.707336,480.452026 
	C556.924866,480.111481 552.511414,479.719421 548.213684,481.505554 
	C551.053467,483.177795 554.011780,482.539612 557.707947,482.627808 
M578.476685,439.413361 
	C577.425964,439.728210 576.115723,439.423859 575.386108,440.690399 
	C581.548828,440.690399 587.638367,440.690399 595.002991,440.690399 
	C589.021423,438.800171 584.108093,439.528534 578.476685,439.413361 
M575.641724,612.345825 
	C569.899414,611.506409 564.157043,610.666992 558.414734,609.827576 
	C564.230835,611.386414 569.877380,614.209534 575.641724,612.345825 
M613.818604,384.862335 
	C618.224243,386.128204 622.754639,385.947388 627.327881,385.483917 
	C621.730164,384.832977 616.132385,384.182037 610.534668,383.531097 
	C610.479309,383.811005 610.424011,384.090942 610.368713,384.370850 
	C611.272522,384.505463 612.176392,384.640076 613.818604,384.862335 
M622.124023,380.286835 
	C615.871216,379.553619 615.871216,379.553619 611.589050,380.993134 
	C616.909363,382.007019 621.401123,381.811707 626.102722,381.647675 
	C625.181213,380.188324 623.907654,380.563690 622.124023,380.286835 
M586.920654,444.725830 
	C588.139282,444.725830 589.357849,444.725830 591.325012,444.725830 
	C584.719177,442.711639 578.842529,443.555725 572.952148,444.737122 
	C577.326233,444.737122 581.700256,444.737122 586.920654,444.725830 
M580.448242,308.892426 
	C578.459412,315.643982 585.538879,311.934540 587.148499,314.565857 
	C584.890198,312.637665 584.290405,309.039429 580.448242,308.892426 
M588.259277,435.278809 
	C585.355469,435.497314 582.327332,434.625671 579.562622,436.356354 
	C584.682556,435.904053 589.785889,436.261475 596.097046,436.800964 
	C593.096985,434.960602 591.064209,435.467621 588.259277,435.278809 
M596.697388,308.040497 
	C596.952637,308.250854 597.179260,308.549469 597.471924,308.644165 
	C597.714661,308.722656 598.035095,308.560791 598.626099,308.446381 
	C595.834534,305.391846 593.156921,302.461975 590.479309,299.532104 
	C591.283447,303.159637 593.861206,305.345703 596.697388,308.040497 
M493.045105,559.374878 
	C491.162659,557.875122 489.195526,558.457947 485.858337,558.192017 
	C488.674713,560.351257 490.854218,558.992310 492.349396,560.688782 
	C492.234985,562.122253 492.111450,563.669739 491.987946,565.217285 
	C492.727814,563.469666 493.839813,561.865723 493.045105,559.374878 
M594.294861,297.979584 
	C593.983154,297.910767 593.673279,297.808411 593.358704,297.790802 
	C593.244812,297.784485 593.001465,298.049927 593.016357,298.075378 
	C594.954651,301.405792 598.154175,303.426849 601.375793,305.484741 
	C599.165283,303.107025 596.954773,300.729340 594.294861,297.979584 
M592.277649,426.892212 
	C589.233704,426.522156 586.191772,426.027588 582.135742,426.713440 
	C587.196045,428.250183 591.347168,427.592804 595.491821,427.168640 
	C594.664185,427.097351 593.836487,427.026093 592.277649,426.892212 
M580.255554,448.026581 
	C576.494629,448.026581 572.733643,448.026581 568.972717,448.026581 
	C568.977661,448.198486 568.982666,448.370392 568.987671,448.542297 
	C574.497986,448.542297 580.008240,448.542297 585.518555,448.542297 
	C585.517761,448.368469 585.516907,448.194641 585.516113,448.020813 
	C584.048889,448.020813 582.581604,448.020813 580.255554,448.026581 
M589.670837,422.347717 
	C588.590576,422.449188 587.281860,421.890442 586.115173,423.546082 
	C590.002258,423.546082 593.323669,423.546082 597.537231,423.546082 
	C594.580078,423.067902 592.502441,422.731934 589.670837,422.347717 
M598.294250,758.489136 
	C597.065125,759.320984 596.034424,760.357361 597.934326,761.363464 
	C599.091797,761.976440 600.784485,761.889709 601.269165,760.362061 
	C601.894409,758.391602 600.272522,758.370972 598.294250,758.489136 
M581.426819,431.571960 
	C585.867493,431.571960 590.308167,431.571960 594.748840,431.571960 
	C590.181702,431.102966 585.597717,430.845093 581.012085,430.622742 
	C580.989807,430.621643 580.943176,431.124084 581.426819,431.571960 
z"/>
<path fill="#000000" opacity="1.000000" stroke="none" 
	d="
M702.547852,497.096161 
	C704.140991,492.645050 704.120483,489.153870 699.717346,486.545959 
	C697.829163,485.427612 697.007568,483.205505 698.340454,480.892548 
	C701.184814,480.082855 702.513123,483.722321 705.519348,483.048737 
	C707.382141,479.412506 707.622498,475.341217 707.704956,471.200775 
	C707.814941,465.679260 708.768555,465.134674 713.539490,467.754608 
	C714.354980,468.202393 715.055237,468.218903 715.894958,468.065552 
	C717.350647,467.799683 719.091614,467.244995 719.572876,469.347321 
	C719.992432,471.179657 719.020386,472.944061 717.383423,473.413788 
	C711.406067,475.129211 710.982422,479.767670 710.892517,484.793793 
	C713.298462,486.822693 716.502014,484.732208 719.039246,486.380981 
	C719.605713,489.511078 718.226318,490.941956 715.131409,491.298889 
	C707.802063,492.144257 707.760864,492.254089 707.082336,500.704651 
	C708.989929,502.140442 711.457947,501.892609 713.630127,502.587219 
	C714.981201,503.019257 716.290710,503.182404 715.991089,505.053497 
	C715.732483,506.668335 714.625854,507.224792 713.146667,507.271912 
	C712.147644,507.303772 711.146729,507.330414 710.147949,507.306854 
	C703.124634,507.141235 702.394653,507.777191 701.071472,515.273315 
	C701.813538,516.611938 703.265076,516.682129 704.483765,517.127197 
	C705.707031,517.573914 706.982727,517.877380 708.235840,518.243774 
	C709.044067,522.554626 706.621826,522.591187 703.575378,522.429138 
	C701.278931,522.306946 699.093750,519.762756 696.987427,521.404419 
	C694.768860,523.133484 693.844666,526.015869 692.849121,528.690735 
	C694.351868,532.463379 700.980164,531.012268 700.817688,536.609070 
	C697.268799,538.150696 694.179016,536.547913 691.409180,534.945374 
	C687.268921,532.549927 686.213501,535.855469 684.477356,538.108704 
	C682.453369,540.735596 683.934937,542.314453 686.137390,543.752747 
	C688.196655,545.097534 690.581665,546.301575 689.857727,549.594788 
	C686.462708,551.224182 683.710693,549.526733 681.088989,547.803284 
	C676.776550,544.968262 675.716125,549.282471 673.679199,551.141418 
	C671.208557,553.396057 673.030884,554.815979 675.016846,556.141296 
	C676.957642,557.436584 678.936646,558.814453 678.082642,561.691223 
	C675.797729,563.271362 673.513306,561.350037 671.021912,561.822632 
	C668.937927,565.011963 669.280945,568.723389 669.394531,572.302429 
	C669.494446,575.449829 668.081238,576.718018 665.151794,577.274719 
	C651.634583,579.843445 651.644287,579.890808 651.650757,566.260376 
	C651.653137,561.260742 651.886108,556.245422 651.553894,551.267944 
	C651.382690,548.703613 653.544922,544.140991 648.780396,544.174316 
	C644.419983,544.204895 646.513733,548.542725 646.440186,550.901245 
	C646.175415,559.392456 646.399597,567.897644 646.281677,576.395447 
	C646.252014,578.530762 647.219543,581.733704 643.966248,582.139160 
	C640.528503,582.567566 639.655151,579.861084 639.521423,576.859741 
	C639.456238,575.397339 638.966553,573.953735 638.538574,571.864990 
	C631.314331,579.100708 623.359680,573.375244 615.818481,573.903992 
	C613.190918,574.088196 613.737427,571.025085 613.671387,569.105164 
	C613.607056,567.233521 614.160767,565.798401 616.394043,565.760620 
	C618.059814,565.732483 619.725403,565.685852 621.391235,565.665100 
	C627.555115,565.588318 627.898376,565.094177 627.704956,559.129272 
	C627.614075,556.328125 626.519653,555.220276 623.813293,555.248474 
	C621.316467,555.274536 618.817200,555.111877 616.319580,555.018005 
	C614.171448,554.937256 612.914307,553.999023 612.876526,551.664368 
	C612.839783,549.396729 613.304321,547.772339 616.052063,547.624451 
	C618.035339,547.517761 619.989746,546.884766 621.973450,546.769470 
	C623.989990,546.652222 625.463745,546.222351 626.077576,543.987183 
	C626.556763,542.242432 627.298218,540.170288 629.628235,540.526978 
	C631.512146,540.815369 631.898376,542.731995 632.295898,544.376099 
	C632.445618,544.995544 632.655334,545.600525 632.817322,546.143799 
	C634.667603,546.622131 636.294800,546.625244 638.751160,546.033203 
	C636.694153,539.208740 641.885681,535.731201 645.880249,531.605042 
	C646.342773,531.127197 646.790039,530.427856 647.356445,530.289124 
	C652.701050,528.980164 654.990356,533.935120 658.669373,536.019287 
	C660.674133,537.155029 662.719360,539.036560 660.781433,541.708313 
	C659.479431,543.503357 659.968628,545.125610 660.368774,546.894470 
	C661.649719,552.556824 663.786804,553.347839 668.068665,549.506470 
	C670.640015,547.199707 673.433899,545.026245 675.083252,541.839050 
	C673.821167,538.246521 668.527527,537.826904 668.632568,533.407898 
	C668.669922,531.836670 669.419434,530.545898 671.358398,529.986572 
	C673.824158,531.935486 675.678833,534.819336 678.598083,536.329163 
	C684.288025,532.009033 684.390381,531.197266 680.030273,525.977173 
	C678.020203,523.570679 676.628784,521.066223 678.900269,517.640137 
	C682.345947,519.559875 683.570679,523.794983 687.303650,525.157837 
	C689.480103,524.239563 690.037170,521.959656 691.294800,520.269775 
	C692.661255,518.433533 692.399353,516.996521 690.345093,515.764893 
	C689.077698,515.005127 687.937561,513.971802 686.897888,512.907349 
	C685.260620,511.231110 684.948730,509.230438 686.881531,507.693146 
	C688.922363,506.069885 689.710693,508.376190 690.768188,509.450012 
	C692.015930,510.717072 692.912720,513.004761 694.992798,512.354553 
	C697.532776,511.560608 697.482361,508.643372 698.353027,506.566498 
	C699.359497,504.165558 697.444580,503.394257 695.784119,502.539886 
	C692.787109,500.997864 691.481201,498.609863 692.057922,495.051056 
	C695.030823,494.269409 696.183960,496.955750 698.098694,497.927032 
	C699.751648,498.765594 701.296143,500.242126 702.547852,497.096161 
M635.886353,555.179199 
	C634.092590,563.011292 634.881714,565.545471 639.624390,566.285339 
	C639.624390,563.617798 639.622864,560.993164 639.624939,558.368469 
	C639.626587,556.284241 638.979919,554.780273 635.886353,555.179199 
z"/>
<path fill="#000000" opacity="1.000000" stroke="none" 
	d="
M713.381348,338.274811 
	C709.107910,347.170380 708.477600,356.436554 707.958984,366.891388 
	C704.110535,362.072723 703.204224,357.508209 702.673157,352.812317 
	C701.781006,344.924469 704.069214,337.642578 707.238892,330.621857 
	C710.821594,322.686279 713.156616,314.419617 714.710083,305.885834 
	C715.047668,304.031433 715.078674,301.297333 717.805847,301.651886 
	C720.220520,301.965790 720.133911,304.570099 720.281006,306.513336 
	C721.123291,317.638641 717.519104,327.820312 713.381348,338.274811 
z"/>
<path fill="#000000" opacity="1.000000" stroke="none" 
	d="
M697.696045,253.257477 
	C696.794861,250.263092 695.989075,247.652008 694.955505,244.302811 
	C705.160706,251.395279 711.721375,277.823639 706.120056,288.661743 
	C701.655579,277.007538 701.812988,264.794830 697.696045,253.257477 
z"/>
<path fill="#000000" opacity="1.000000" stroke="none" 
	d="
M277.036591,701.312988 
	C273.705170,702.808167 270.785828,703.064453 268.761780,700.027893 
	C267.043976,697.450684 266.983856,694.616760 269.341370,692.338684 
	C271.527924,690.225769 274.225189,690.066345 276.533356,692.043091 
	C279.583466,694.655090 280.344940,697.762024 277.036591,701.312988 
z"/>
<path fill="#000000" opacity="1.000000" stroke="none" 
	d="
M293.060120,704.181396 
	C294.519287,707.772400 293.746979,710.348022 290.759827,712.225342 
	C288.675873,713.534973 286.672882,713.338196 284.737579,711.913452 
	C282.336151,710.145508 282.251129,707.641296 282.985168,705.173523 
	C284.235565,700.969849 288.929688,700.395386 293.060120,704.181396 
z"/>
<path fill="#000000" opacity="1.000000" stroke="none" 
	d="
M748.415161,702.002686 
	C754.597961,701.890808 757.652100,705.290405 755.570557,709.452637 
	C754.470032,711.653320 752.656311,713.180786 750.145203,713.112305 
	C747.625122,713.043579 745.764893,711.430054 744.981323,709.125244 
	C743.936768,706.052795 745.166565,703.668884 748.415161,702.002686 
z"/>
<path fill="#000000" opacity="1.000000" stroke="none" 
	d="
M246.885605,706.394409 
	C250.219528,701.154297 254.279572,700.458252 256.676117,704.438599 
	C258.003540,706.643250 258.634552,709.131165 256.819580,711.435608 
	C255.167282,713.533630 252.757477,713.757874 250.452011,713.078857 
	C247.435440,712.190491 246.556915,709.744812 246.885605,706.394409 
z"/>
<path fill="#000000" opacity="1.000000" stroke="none" 
	d="
M724.528381,695.135254 
	C727.716980,696.883667 728.929688,699.259949 727.745972,702.330872 
	C726.510803,705.535461 723.856140,706.894775 720.565613,706.156006 
	C717.427612,705.451538 716.456055,702.671509 716.909973,699.988953 
	C717.549622,696.209106 720.232056,694.483582 724.528381,695.135254 
z"/>
<path fill="#000000" opacity="1.000000" stroke="none" 
	d="
M719.618408,719.691406 
	C717.090027,722.501831 714.345581,722.314331 711.813477,720.689941 
	C709.799316,719.397766 708.611816,717.261841 709.373596,714.715759 
	C710.066956,712.398315 712.048096,711.351196 714.245422,711.037170 
	C718.627563,710.410950 720.874756,713.856445 719.618408,719.691406 
z"/>
</svg>